<svg width="800" height="600" xmlns="http://www.w3.org/2000/svg">

 <g>
  <title>Layer 1</title>
  <path id="svg_1" d="m409.83334,480.13333c-113.53591,0 -205.5,-93.08287 -205.5,-208c0,-114.91713 91.96409,-208 205.5,-208c113.53591,0 205.5,93.08287 205.5,208c0,114.91713 -91.96409,208 -205.5,208z" opacity="undefined" stroke="#000" fill="#5B9BA2"/>
  <path stroke-width="20" d="m276,205c0,1 -0.07602,2.03986 1,4c2.80591,5.11145 6.56351,8.7025 9,14c1.32138,2.87297 3.41156,6.40401 7,11c2.61096,3.34407 4.04031,6.64734 7,10c2.38617,2.703 5.3851,5.37201 8,9c1.65381,2.29454 4,3 6,6c2,3 3,5 4,6c1,1 2,1 2,2c0,1 0.29291,1.29291 1,2c0.70709,0.70709 1,1 2,1c1,0 1.95328,-0.07193 5,-2c4.92722,-3.1181 9,-7 13,-11c5,-5 8.28415,-10.73116 13,-16c4.27039,-4.77115 8.20889,-10.86588 12,-17c4.23859,-6.85817 8.8819,-12.07278 12,-17c1.92807,-3.04672 4,-4 7,-7c2,-2 3,-3 3,-4l1,0l0,-1l0,-1" id="svg_6" stroke="#000" fill="none"/>
  <path stroke-width="20" d="m387,240c0,1 -0.41241,5.01704 0,10c0.50171,6.06204 1,12 1,18c0,5 -1,10 -1,15c0,5 0,7 0,8c0,3 -0.4595,5.0535 0,7c0.51373,2.17624 1.75565,4.01498 2,6c0.50378,4.09222 1,6 1,8c0,3 0,4 0,6c0,1 0.4588,1.69345 1,3c0.38269,0.92389 0,2 0,3c0,1 0,3 0,4c0,1 0,2 0,3c0,1 0,4 0,5l0,1l0,1" id="svg_7" stroke="#000" fill="none"/>
  <path stroke-width="20" d="m441,190c0,1 -0.49622,1.90779 -1,6c-0.24435,1.98502 0,4 0,6c0,1 -0.4588,1.69344 -1,3c-1.14804,2.77164 0,5 0,9c0,4 0,7 0,12c0,3 1,6 1,10c0,3 1.49756,5.9258 2,11c0.29562,2.9854 1,5 1,7c0,3 1.49622,5.90778 2,10c0.48874,3.97003 0,8 0,12c0,4 0,7 0,11c0,3 0,7 0,10c0,3 0,5 0,7c0,3 0,6 0,8c0,2 0,4 0,6c0,2 0,3 0,5c0,1 0,3 0,5c0,2 0,3 0,4c0,1 0,2 0,4l0,1l0,1l0,1" id="svg_8" stroke="#000" fill="none"/>
  <path stroke-width="20" d="m481,190c0,1 0,2 0,5c0,3 0.49347,5.87856 1,9c0.16019,0.98709 -0.16019,3.01291 0,4c0.50653,3.12144 1,6 1,8c0,1 0,2 0,3l0,1l0,1" id="svg_9" stroke="#000" fill="none"/>
  <path stroke-width="20" d="m544,212c-1,0 -1.2774,2.88596 -6,6c-4.49573,2.96448 -8.53284,5.42238 -14,11c-4.48218,4.57274 -8.34619,7.70546 -10,10c-1.30743,1.814 -1.61731,3.07613 -2,4c-0.5412,1.30656 -2.07611,0.61731 -3,1c-1.30655,0.5412 -3.22836,0.85194 -6,2c-2.61313,1.0824 -5.0535,2.5405 -7,3c-2.17624,0.51375 -3.07611,1.61731 -4,2c-1.30655,0.5412 -3,2 -4,2c-1,0 -2,1 -3,2c-1,1 -1.29291,1.29291 -2,2c-0.70709,0.70709 -1,1 -1,2c0,1 0.71411,2.21167 3,5c2.68979,3.28101 4.91754,5.05664 7,8c2.88785,4.0817 7.1705,6.83868 10,10c4.27039,4.77115 9.05664,9.91754 12,12c4.08173,2.88785 7,6 8,7c3,3 3.69257,4.186 5,6c1.65381,2.29453 2.69257,3.186 4,5c0.8269,1.14728 1.69257,3.186 3,5c0.8269,1.14728 1.29291,2.29291 2,3c0.70709,0.70709 1.61731,0.07611 2,1c0.5412,1.30655 2,1 2,2l1,0l0,1" id="svg_10" stroke="#000" fill="none"/>
 </g>
</svg>
