<svg width="400" height="300" xmlns="http://www.w3.org/2000/svg">

 <g>
  <title>Layer 1</title>
  <path stroke="#000" id="svg_1" d="m204.4,292.4c-76.62983,0 -138.7,-64.44199 -138.7,-144c0,-79.55801 62.07016,-144 138.7,-144c76.62983,0 138.7,64.44199 138.7,144c0,79.55801 -62.07016,144 -138.7,144z" opacity="undefined" fill="#5B9BA2"/>
  <path stroke="#000" stroke-width="20" d="m97.59971,86.43158c0,0.62105 -0.05718,1.26686 0.75221,2.48421c2.11065,3.17448 4.93717,5.40471 6.76993,8.69474c0.99396,1.78427 2.56623,3.97723 5.2655,6.83158c1.964,2.07684 3.03918,4.12835 5.2655,6.21053c1.79491,1.67871 4.05075,3.3363 6.01772,5.58947c1.24402,1.42503 3.00886,1.86316 4.51329,3.72632c1.50443,1.86316 2.25664,3.10526 3.00886,3.72632c0.75221,0.62105 1.50443,0.62105 1.50443,1.24211c0,0.62105 0.22033,0.80296 0.75221,1.24211c0.53189,0.43914 0.75221,0.62105 1.50443,0.62105c0.75221,0 1.46928,-0.04467 3.76107,-1.24211c3.70633,-1.93651 6.76993,-4.34737 9.77879,-6.83158c3.76107,-3.10526 6.23146,-6.66461 9.77879,-9.93684c3.21225,-2.96313 6.17485,-6.74828 9.02658,-10.55789c3.18833,-4.25928 6.6811,-7.49783 9.02658,-10.55789c1.45032,-1.89217 3.00886,-2.48421 5.2655,-4.34737c1.50443,-1.24211 2.25664,-1.86316 2.25664,-2.48421l0.75221,0l0,-0.62105l0,-0.62105" id="svg_6" fill="none"/>
  <path stroke-width="20" d="m187.8,112.00001c0,1 -0.41241,5.01704 0,10c0.50171,6.06204 1,12 1,18c0,5 -1,10 -1,15c0,5 0,7 0,8c0,3 -0.4595,5.0535 0,7c0.51373,2.17624 1.75565,4.01498 2,6c0.50378,4.09222 1,6 1,8c0,3 0,4 0,6c0,1 0.4588,1.69345 1,3c0.38269,0.92389 0,2 0,3c0,1 0,3 0,4c0,1 0,2 0,3c0,1 0,4 0,5l0,1l0,1" id="svg_7" stroke="#000" fill="none"/>
  <path stroke-width="20" d="m224.2,64.40001c0,1 -0.49622,1.90779 -1,6c-0.24435,1.98502 0,4 0,6c0,1 -0.4588,1.69344 -1,3c-1.14804,2.77164 0,5 0,9c0,4 0,7 0,12c0,3 1,6 1,10c0,3 1.49756,5.9258 2,11c0.29562,2.9854 1,5 1,7c0,3 1.49622,5.90778 2,10c0.48874,3.97003 0,8 0,12c0,4 0,7 0,11c0,3 0,7 0,10c0,3 0,5 0,7c0,3 0,6 0,8c0,2 0,4 0,6c0,2 0,3 0,5c0,1 0,3 0,5c0,2 0,3 0,4c0,1 0,2 0,4l0,1l0,1l0,1" id="svg_8" stroke="#000" fill="none"/>
  <path stroke-width="20" d="m259.4,66.00001c0,1 0,2 0,5c0,3 0.49347,5.87856 1,9c0.16019,0.98709 -0.16019,3.01291 0,4c0.50653,3.12144 1,6 1,8c0,1 0,2 0,3l0,1l0,1" id="svg_9" stroke="#000" fill="none"/>
  <path stroke-width="20" d="m324,90.40001c-1,0 -1.2774,2.88596 -6,6c-4.49573,2.96448 -8.53284,5.42238 -14,11c-4.48218,4.57274 -8.34619,7.70546 -10,10c-1.30743,1.814 -1.61731,3.07613 -2,4c-0.5412,1.30656 -2.07611,0.61731 -3,1c-1.30655,0.5412 -3.22836,0.85194 -6,2c-2.61313,1.0824 -5.0535,2.5405 -7,3c-2.17624,0.51375 -3.07611,1.61731 -4,2c-1.30655,0.5412 -3,2 -4,2c-1,0 -2,1 -3,2c-1,1 -1.29291,1.29291 -2,2c-0.70709,0.70709 -1,1 -1,2c0,1 0.71411,2.21167 3,5c2.68979,3.28101 4.91754,5.05664 7,8c2.88785,4.0817 7.1705,6.83868 10,10c4.27039,4.77115 9.05664,9.91754 12,12c4.08173,2.88785 7,6 8,7c3,3 3.69257,4.186 5,6c1.65381,2.29453 2.69257,3.186 4,5c0.8269,1.14728 1.69257,3.186 3,5c0.8269,1.14728 1.29291,2.29291 2,3c0.70709,0.70709 1.61731,0.07611 2,1c0.5412,1.30655 2,1 2,2l1,0l0,1" id="svg_10" stroke="#000" fill="none"/>
 </g>
</svg>
